<!DOCTYPE svg PUBLIC "-//W3C//DTD SVG 1.1//EN" "http://www.w3.org/Graphics/SVG/1.1/DTD/svg11.dtd">
<!-- Uploaded to: SVG Repo, www.svgrepo.com, Transformed by: SVG Repo Mixer Tools -->
<svg fill="#000000" height="800px" width="800px" version="1.1" id="Layer_1" xmlns="http://www.w3.org/2000/svg" xmlns:xlink="http://www.w3.org/1999/xlink" viewBox="0 0 512.001 512.001" xml:space="preserve">
<g id="SVGRepo_bgCarrier" stroke-width="0"/>
<g id="SVGRepo_tracerCarrier" stroke-linecap="round" stroke-linejoin="round"/>
<g id="SVGRepo_iconCarrier"> <g> <g> <path d="M501.357,240.417l-113.45-43.916l50.005-100.01c7.146-14.291-8.074-29.566-22.4-22.401L315.5,124.096L271.583,10.644 c-5.604-14.404-25.709-13.977-31.141,0l-43.915,113.45L96.516,74.089c-14.292-7.149-29.564,8.074-22.401,22.401l50.006,100.011 l-113.45,43.915c-6.43,2.489-10.669,8.674-10.669,15.57c0,6.896,4.239,13.082,10.669,15.57l113.45,43.917L74.115,415.484 c-7.156,14.312,8.093,29.553,22.401,22.401l100.011-50.006l43.916,113.45c5.456,14.086,25.573,14.372,31.141,0l43.916-113.45 l100.011,50.006c14.248,7.124,29.598-8.004,22.4-22.401l-50.005-100.01l113.45-43.916 C515.545,266.067,515.547,245.909,501.357,240.417z M184.418,155.373l-8.098,20.919l-20.919,8.098l-29.017-58.034L184.418,155.373 z M185.113,208.697l30.592,30.592H106.082L185.113,208.697z M126.384,385.615l29.017-58.034l20.919,8.098l8.098,20.919 L126.384,385.615z M185.113,303.274c-2.136-0.827-76.767-29.716-79.031-30.592h109.623L185.113,303.274z M239.317,405.918 c-0.875-2.262-29.766-76.897-30.592-79.031l30.592-30.592V405.918z M239.317,215.679l-30.592-30.592 c0.826-2.137,29.715-76.768,30.592-79.032V215.679z M385.643,126.356l-29.017,58.036l-20.921-8.098l-8.098-20.919L385.643,126.356 z M272.71,106.055c25.547,65.995,17.665,45.635,30.592,79.031l-30.592,30.592V106.055z M272.71,405.918V296.294l30.592,30.592 C289.671,362.101,285.483,372.921,272.71,405.918z M327.609,356.598l8.098-20.919l20.921-8.098l29.016,58.034L327.609,356.598z M326.914,303.274l-30.592-30.592h109.623C339.416,298.436,360.482,290.281,326.914,303.274z M296.322,239.289l30.592-30.592 l79.031,30.592H296.322z"/> </g> </g> </g>
</svg>